<svg width="58" height="35" viewBox="0 0 58 35" fill="none" xmlns="http://www.w3.org/2000/svg">
<g id="Frame 203">
<path id="Vector" d="M53.4761 26.3468V11.2337H56.9673V26.3468H53.4761ZM57.4949 32.631C57.4949 33.2413 57.2725 33.7688 56.8277 34.2137C56.3829 34.6585 55.8501 34.8809 55.2295 34.8809C54.5985 34.8809 54.0606 34.6585 53.6157 34.2137C53.1709 33.7792 52.9485 33.2465 52.9485 32.6155C52.9485 31.9844 53.1709 31.4465 53.6157 31.0017C54.0502 30.5569 54.5829 30.3345 55.2139 30.3345C55.845 30.3345 56.3829 30.5569 56.8277 31.0017C57.2725 31.4465 57.4949 31.9896 57.4949 32.631Z" fill="black"/>
<path id="Vector_2" d="M50.9619 11.0946V26.2077H47.4707V11.0946H50.9619ZM46.9431 4.81044C46.9431 4.20012 47.1655 3.67256 47.6103 3.22776C48.0551 2.78295 48.5879 2.56055 49.2085 2.56055C49.8395 2.56055 50.3774 2.78295 50.8222 3.22776C51.267 3.66222 51.4894 4.19495 51.4894 4.82595C51.4894 5.45696 51.267 5.99486 50.8222 6.43967C50.3878 6.88448 49.855 7.10688 49.224 7.10688C48.593 7.10688 48.0551 6.88448 47.6103 6.43967C47.1655 5.99486 46.9431 5.45179 46.9431 4.81044Z" fill="black"/>
<path id="Vector_3" d="M41.4632 11.0947H44.97V26.2078H41.4632V24.6251C40.0254 25.9699 38.4789 26.6423 36.8238 26.6423C34.7343 26.6423 33.0068 25.8871 31.6413 24.3768C30.2862 22.8355 29.6086 20.9115 29.6086 18.6047C29.6086 16.3393 30.2862 14.4515 31.6413 12.9412C32.9964 11.4309 34.6929 10.6758 36.7307 10.6758C38.4892 10.6758 40.0668 11.3999 41.4632 12.8481V11.0947ZM33.1774 18.6047C33.1774 20.0529 33.5653 21.2322 34.3412 22.1425C35.1377 23.0631 36.1411 23.5234 37.3514 23.5234C38.6444 23.5234 39.6892 23.0786 40.4857 22.189C41.2822 21.2684 41.6805 20.0995 41.6805 18.6823C41.6805 17.2651 41.2822 16.0962 40.4857 15.1756C39.6892 14.2756 38.6548 13.8256 37.3824 13.8256C36.1825 13.8256 35.1791 14.2808 34.3722 15.1911C33.5757 16.1117 33.1774 17.2496 33.1774 18.6047Z" fill="black"/>
<path id="Vector_4" d="M14.7878 0H18.2791V12.3511C19.5204 11.2339 20.891 10.6753 22.3909 10.6753C24.0977 10.6753 25.4632 11.2288 26.4873 12.3356C27.3562 13.2976 27.7907 14.8338 27.7907 16.944V26.2074H24.2995V17.2699C24.2995 16.0596 24.0822 15.1855 23.6478 14.6476C23.2236 14.0993 22.5357 13.8252 21.5841 13.8252C20.3634 13.8252 19.5049 14.2028 19.0083 14.9579C18.5221 15.7234 18.2791 17.0371 18.2791 18.8991V26.2074H14.7878V0Z" fill="black"/>
<path id="Vector_5" d="M12.4748 11.7464V16.3859C11.6783 15.4135 10.9645 14.7463 10.3335 14.3842C9.71284 14.0118 8.98356 13.8256 8.14567 13.8256C6.83194 13.8256 5.74061 14.286 4.87169 15.2066C4.00277 16.1272 3.56831 17.2806 3.56831 18.6668C3.56831 20.0839 3.98725 21.2477 4.82514 22.158C5.67338 23.0683 6.75436 23.5234 8.06809 23.5234C8.90598 23.5234 9.6456 23.3424 10.2869 22.9804C10.9076 22.6287 11.6369 21.9459 12.4748 20.9322V25.5406C11.0576 26.275 9.64043 26.6423 8.22325 26.6423C5.88543 26.6423 3.93036 25.8871 2.35802 24.3768C0.785681 22.8562 -0.000488281 20.9684 -0.000488281 18.7133C-0.000488281 16.4583 0.796025 14.5549 2.38905 13.0033C3.98208 11.4516 5.93716 10.6758 8.25429 10.6758C9.74387 10.6758 11.1507 11.0327 12.4748 11.7464Z" fill="black"/>
</g>
</svg>
